<?xml version="1.0" encoding="UTF-8"?>
<svg id="Layer_1" data-name="Layer 1" xmlns="http://www.w3.org/2000/svg" viewBox="0 0 1228.65 881.6">
  <path d="M352.02,761.9s.03.02.06.04c.05-.06.06-.08.1-.14l-.16.1Z"/>
  <path d="M1223.43,481.12c-4.95-8.44-6.15-17.94-9.04-26.96-.96-3-2.52-5,.69-7.5,1.53-1.2,1.56-3.24.67-5.09-1.28-2.67-2.18-5.72-5.4-6.91-4.42-1.62-5.03-4.83-5.58-8.65-.82-5.79-2.36-11.46-7.4-15.67-4.19-3.51-2.22-8.85-4.27-13.05-.73-1.51,1.17-3.22,2.39-3.34,7.48-.76,12.99-7.23,21.09-6.03,3.4.5,6.07-1.25,8.74-2.81.6-.35,1.23-1.09,1.29-1.7.14-1.24-.85-2.13-2.06-2.27-8.19-.97-16.35-2.17-24.67-1.9-4.23.14-4.78-.5-6.23-5-.36-1.12.77-2.99-1.68-3.25-1.2,2.34-2.09,4.87-5.19,5.62-1.61.39-3.55.5-4.06-1.12-.96-3.15-1.07-6.46-5.47-7.68-1.51-.42-.27-1.75.62-2.51.87-.73,1.87-1.4,2.52-2.28,1.13-1.55,1.79-3.42,1.08-5.19-.91-2.32-3.35-1.52-5.17-1.42-1.92.11-3.87.58-5.69,1.19-3.15,1.06-5.31-.46-7.5-2.08-1.96-1.43-2.01-3.49,0-4.4,1.77-.81,3.64-1.43,5.47-2.13,3.5-1.34,6.29-3.1,6.09-7.2-.04-.98.71-2.08,1.32-2.99,1.47-2.14,1.55-4.03-.66-5.79-1.32-1.04-1.15-2.59-1.52-3.99-1.18-4.38-2.13-4.98-6.16-4.34-1.16.18-2.24.73-3.4.96-4.19.85-6.48-.59-5.47-4.29,1.03-3.77.54-6.26-2.97-8.44-1.13-.7-1.63-2.26-2.62-3.75-3.39,4.47-6.03,7.96-9.95,13.14.88-7.76,1-13.5,8.35-16.12,2.08-.74,3.17-2.62,2.29-4.46-2.54-5.26-.37-8.33,4.92-10.3.35-.13.65-.41.95-.65,4.24-3.27,7.43-6.67,3.5-12.09-1.59-2.18-1.32-4.98-.68-7.48.79-3.1-.21-4.82-3.56-5.68-1.93-.5-4.34-1.92-3.34-3.79,2.81-5.27.85-8.21-3.67-11.85-3.57-2.89-4.5-8.25-8.72-11.18-.44-7.13-5.76-13.76-2.55-21.27.62-1.47.38-2.85-.77-4.05-4.85-5.01-7.4-11.14-9.67-17.36-.78-2.14-1.65-4.04-3.55-5.54-3.01-2.38-5.26-5.34-7.68-8.25-5.86-7.05-13.46-12.05-22.89-14.55-3.33-.88-3.29-1.43-.26-4.28,3.49-3.28,3.65-3.44.85-5.92-3.97-3.52-8.28-6.72-8.75-12.32-4.84-4.24-7.91-10.33-14.29-12.83-3.94-1.55-6.19-4.23-8.9-6.87-6.43-6.31-12.87-12.4-21.6-16.51-7.88-3.72-16.52-7.28-20.84-15.5-.56-1.08-2.53-1.95-3.97-2.14-7.52-1.05-11.17-7.97-18.08-9.98-1.03-.3-1.74-2.35-2.05-3.7-1-4.3-4.19-5.87-8.47-6.44-2.34-.31-4.64-1.12-6.98-1.24-4.35-.21-8-.45-6.31-6.12.44-1.45-1.83-2.07-3.52-1.98-3.52.18-7.27,1.28-10.4-.75-3.55-2.31-7.41-1.98-11.34-2.14-11.02-.44-22.13.55-33.04-2-3.4-.79-7.14-.94-10.57.3-3.46,1.25-6.76,2.08-10.02-.3-9.84.37-19.75-.51-29.5,1.28-1.46.26-3,1.14-4.05,2.13-3,2.83-6.05,2.65-9.72,1.19-2.47-.98-5.37-1.04-8.02-1.68-.61-.15-1.38-.95-1.44-1.5-.12-1.18.77-2.2,1.99-2.33,5.07-.57,10.16-1,15.25-1.42,3.48-.29,5.97-1.78,7.25-4.82.42-1.01.53-2.17,1.07-3.12,1.16-2.06,4.24-2.74,6.07-1.24,1.45,1.18,2.54,2.73,3.86,4.07,2.62,2.67,4.99,2.78,8.08.44,2.55-1.93,2.88-4.19,1.05-6.73-2.94-4.07-7.26-6.62-11.57-9.25-3.81-2.32-7.41-2.53-10.69.65-2.46,2.4-4.7,2.52-6.74-.21-3.16-4.23-7.45-4.89-12.54-3.85-4.19.86-8.45,1.43-12.8,2.14q.28-7.23-5.52-9.16c-1.12-.37-2.37-.48-3.38-1-5-2.54-10.01-2.63-15.76-2.1-7.11.65-14.02,2.14-21.07,2.88-3.49.37-7.06,2.07-10.5.53-4.14-1.86-5.09-6.24-7.61-9.38-2.24-2.79,0-6.11,3.71-6.09,2.34.02,4.66.97,7.02.1,1.88-.7,3.8-1.61,3.99-3.64.18-2.05-1.38-3.4-3.39-3.95-1.87-.51-3.89-1-5.8-.9-15.39.82-30.91.93-46.12,2.96-14.08,1.88-28.01,3.91-42.29,3.49-3.87-.12-8.1.37-11.63,1.77-4.21,1.65-8.05,2.37-12.55,1.5-2.73-.52-4.84,2.66-3.97,5.33.61,1.87,1.87,3.59,3.92,3.7,6.39.36,11.91,3.95,18.42,3.81,1.86-.03,3.79.84,5.6,1.5,2.03.75,2.19,3.15.2,4.29-2.01,1.15-4.23,1.91-5.61,3.89-.89,1.26-2.46,1.99-4.1,1.79-7.43-.92-14.95-1.57-22.23-3.1-6.13-1.29-11.87-3.6-18.51-2.78-4.1.51-5.96-2.93-4.29-6.84.72-1.67,1.99-3.2,2.45-4.91.48-1.83-.32-3.68-1.91-4.91-1.72-1.33-4.15-1.4-5.36.08-2.4,2.95-4.89,3.12-8.21,1.73-1.77-.74-3.8-.96-5.72-1.39-5.33-1.14-10.04.7-14.7,2.69-.22.09-.29.7-.23,1.04.07.33.32.72.61.89,1.81,1.06,3.8.65,5.76.53,1.71-.11,3.17.15,3.64,1.97.42,1.63-1.51,3.6-3.55,3.49-1.57-.08-3.14-.29-4.7-.54-14.78-2.49-29.56-5.01-44.35-7.48-4.27-.72-8.56-1.4-12.87-1.91-1.97-.24-4.26-.11-4.9,2.06-.72,2.38,1.42,3.08,3.38,3.48,5.8,1.17,11.64,2.18,17.42,3.39,5.78,1.2,11.54,2.53,17.26,3.91,1.53.37,3.12,1.26,2.85,2.97-.25,1.59-1.91,2.61-3.48,2.36-6.6-1.02-13.36-.75-19.83-3.01-6.22-2.17-12.76-4.62-19.54-2.06-3.95,1.49-6.54.24-9.69-1.8-5.25-3.4-10.92-6.07-17.55-2.34-1.23.69-3.26,1.08-4.52.64-5.46-1.91-11.95-1.12-16.56-5.35-.77-.69-2.08-1.03-3.2-1.2-1.22-.19-2.38.41-2.26,1.68.14,1.36,1.66,2.76.3,4.02-1.47,1.35-3.6,1.53-5.58,1.3-5.89-.69-11.75-1.59-17.63-2.3-12.95-1.57-25.9-3.15-38.87-4.56-2.08-.22-4.62-1.19-6.65,1.69,4.1,2.57,8.84,3.04,13.38,3.23,7.26.29,13.85,3.01,20.84,4.18,2.05.34,3.35,1.84,3.29,3.98-.06,2.27-2.14,4.31-4.66,4.03-3.11-.35-6.17-1.13-9.24-1.78-3.82-.81-7.61-2.54-11.58-1.02-3.99,1.53-7.72.68-11.57-.37-3-.81-6.1-1.73-9.27-.61-.92.33-1.12,1.07-.54,1.83,1.22,1.61,3.06,2.28,5.06,2.48,3.52.33,7.09.41,10.57.93.77.12,1.72,1.59,1.83,2.52.19,1.63-1.01,2.74-2.8,2.84-1.55.08-3.15-.09-4.68-.38-2.28-.43-4.3-1.64-6.86-1.26-12.23,1.83-24.46.4-36.69-.11-6.31-.26-12.8-1.16-18.88-.14-4.54.77-8.47.67-12.72-.39-2.26-.57-4.69-.87-7.02-.81-10.28.26-20.61.23-30.81,1.22-7.41.72-14.94,1.19-22.17,2.58-7.46,1.43-14.82,2.02-22.35,1.99-5.53-.02-11.07.06-16.61.21-1.55.05-3.16.34-4.62.84-1.47.51-2.93,1.44-2.69,3.15.14.99.65,2.29,1.47,2.77,2.3,1.35,4.86,2.3,7.28,3.5,1.64.81,1.75,2.28,1.52,3.79-.26,1.71-1.51,2.33-3.2,2.72-1.67.37-3.71-1.63-5.1.59,1.05,2.01,3.4,1.75,5.01,2.68,3.39,1.98,4.66,7.84,1.42,10.46-3.21,2.59-4.17-1.84-6.15-3.14-.64-.41-1.15-.99-1.75-1.46-2.54-1.98-4.93-2.38-6.81.7-1.02,1.66-2.46,1.72-3.99.99-2.52-1.21-5.09-1.87-7.96-1.75-8.7.35-17.4.58-26.11.92-3.46.14-6.12,1.42-6.96,4.83-.77,3.16-3.05,5.08-6.2,6.1-7.76,2.5-12.19,9.23-19.13,12.78-.9.45-1.79,1.69-1.86,2.62-.44,5.6-5.13,8.03-9.34,10.62-5.05,3.11-8.85,6.99-12.08,11.79-4.58,6.81-9.5,13.63-16.09,18.92-11.66,9.35-19.93,20.58-25.06,33.97-2.28,5.94-4.06,11.47-1.89,18.02,2.28,6.89.67,13.73-4.84,19.42-1.84,1.9-3.49,3.97-5.09,6.06-5.33,6.98-3.46,20.51,5.85,23.65,4.7,1.59,8.93,3.75,5.64,9.7-.45.81.71,2.85,1.71,3.79,3.25,3.05,4.2,5.99.86,9.53-2.52,2.66-1.82,5.4.3,7.96,3.66,4.46,7.83,8.08,14.14,9.29,4.23.81,8.24,2.55,12.44,3.63,2.55.66,4.02,1.73,4.5,4.31.53,2.92,3.16,3.01,5.54,2.23,1.38-.45,2.52-1.62,3.66-2.57,1.32-1.11,2.9-1.78,4.1-.39,3.09,3.58,6.5,4.97,11.34,2.86,1.23-.53,3.14-.09,4.6.32,1.02.29,2.35,1.16,2.56,1.98.31,1.22-1.17,1.87-2.34,1.87-14.56.02-29.11-.1-43.68-.07-6.73.02-13.46.19-20.18.42-1.54.06-3.1.54-4.54,1.08-.48.18-.96,1.23-.83,1.75.74,3.01,5.69,2.3,6.04,5.68.15,1.48,1.3,1.84,2.41,1.87,7.1.22,13.84,3.11,21.11,2.09,4.07-.57,7.85.54,11.18,2.77.57.38,1.3,1.55,1.13,1.72-.71.8-1.63,1.75-2.63,1.93-3.52.62-6.76-2.6-10.36-.9-2.46,1.16-4.59,2.71-7.54.98-.74-.43-2.61-.18-3.26.41-4.13,3.75-9.33,3.65-14.46,3.67-3.65.02-7.13.56-10.26,2.3-2.3,1.28-3.49,3.06-1.43,5.38,1.08,1.22,1.9,2.22-.02,3.48-2.57,1.69-6.01,3.07-7.33,5.41-4.11,7.3-8.86,13.55-18.24,15.43-.4.08-.8,1.3-.71,1.94.08.61.68,1.56,1.22,1.67,4.65,1.01,6.52.22,11.38-4.51,1.78-1.72,5.71-1.95,7.05-.1,1.16,1.59,4.1,2.69,2.21,5.77-4.85.52-9.93,1.13-15.04,1.58-3.54.3-7.12-.02-8.95,3.94-.81,1.73-3.41,2.18-5.28,1.91-5.54-.8-8.02,2.99-11.34,5.75-2.56,2.13-3.74,5.77-7.88,6.28-.33.04-.87,1.23-.7,1.7.2.55,1,1.05,1.67,1.28.71.25,1.56.16,2.34.22,2.37.19,4.77.22,7.1.62,2.02.36,4.75-1.17,6.31,2.22-7.1.19-12.44,3.95-18.3,6.58-1.52.68-3.03,1.54-2.49,3.19.41,1.28,1.48,2.61,2.67,3.4,1.21.8,2.98.83,4.41,1.4,6.86,2.76,7.41,2.69,11.77-2.22.82-.92.45-3.29,2.93-2.02,2.01,2.6,1.28,5.75,2.33,8.49.81,2.12,2.5,2.82,4.64,2.11,1.83-.61,3.46-1.71,5.23-2.48,1.62-.69,3.57.34,3.32,1.82-.72,4.27-.93,8.28.06,12.76,1.55,6.94-1.84,9.46-10.16,9.14-3.29-.13-6.76-.36-8.63,2.38-2.78,4.08-6.86,4.37-11.3,4.61-3.15.17-6.28.75-9.41,1.2-3.96.57-7.29,3-7.42,6.21-.24,5.68-3.35,10.38-4.62,15.63-1.52,6.26-.62,8.33,5.58,11.67,2.69,1.44,5.5,2.33,7.5,5,2.58,3.44,3.93,3.16,7.27-.02,1.1-1.04,1.98-2.29,3.15-3.24,2.54-2.06,4.75-1.52,5.56,1.83.64,2.63,2.35,4.62,4.53,3.83,4.28-1.55,9.64,3.51,12.95-2,.57-.95.77-2.09,1.32-3.05.54-.92,1.33-1.71,2.14-2.7,3.2,1.86,3.75,4.57,3.91,7.53.37,7.24-.53,14.5.98,21.75.89,4.28-1.75,6.62-6.77,7.17-2.35.26-4.93-.25-7.06.49-4.33,1.49-8.21,4.18-13.03.77-1.42-1-3.73.26-5.64.87-6.87,2.19-13.73,4.55-21.29,2.74-2.57-.61-4.46,1.08-5.87,2.96-1.54,2.06.1,6.43,2.48,6.08,5.73-.83,10.59.51,15.28,3.29.56.33,1.59.21,2.33.02,4.96-1.26,10.35-.33,15.09-2.49,2.34-1.05,4.5-1.21,6.78-.07,2.85,1.43,5.31.72,7.56-1.22.87-.74,1.79-1.47,2.81-2.01,1.43-.77,3.05-1,4.44,0,1.34.96,1.84,2.46,1.39,3.92-.96,3.12-3.13,5.88-2.73,9.4.61,5.48-.57,10.95-.5,16.38.11,7.68-2.11,15.23-.92,22.94,1.16,7.57,2.21,15.08-4.89,21.28-2.42,2.11-2.35,5.71-.23,8.17,6.24,7.25,8.52,16.41,14.03,24,2.03,2.81,2.68,6.04,2.49,9.41l-7.8,29.34c-6.41,13.96-6.51,15.92-1.41,30.32.25.69.52,1.39.88,2.03,1.54,2.73,1.87,5.52.63,8.45-1.1,2.63-.84,5.21,1.6,6.98,4.86,3.53,5.99,8.34,6.2,13.62.1,2.55.21,5.13.66,7.63.6,3.32,2.29,6.46,5.33,8.16,3.52,1.99,7.74.69,11.65.5,2.45-.11,2.93-1.95,3.26-3.85.1-.54.98-1.32,1.56-1.38,3.91-.36,7.84-.69,11.77-.75,2.03-.04,3.36,2.02,2.91,3.89-.64,2.64-1.75,4.93-5.08,5.33-1.55.19-3.16.07-4.72.22-4.99.49-8.09,2.82-9.3,6.99-.84,2.89-.7,5.8,0,8.68.67,2.72,4.07,4.15,6.34,2.1,3.73-3.36,6.26-2.91,9.77.3,2.35,2.15,4.59,1.36,6.97-1.31.49-.55.59-1.38,1.06-1.95,2.14-2.57,3.8-2.54,4.77.39.72,2.18,1.21,4.19,3.7,5.18,8.05,3.22,12.72,2.18,18.61-4.32,1.27-1.4,2.21-3.19,4.64-2.45,2.26.69,2.41,2.66,2.76,4.45.07.36.11.73.19,1.08,1.22,5.21,1.35,5.35,6.82,3.65,2.5-.78,4.24-.75,6.41.93,3.37,2.63,3.36,2.19,6.37-.11,3.72-2.85,5.32-8.31,11.53-8.16,2.81,3.85,1.08,8.54,2.73,12.61.66,1.64-1.58,3.48.92,5.82,13.28,1.14,27.44,1.81,41.21,4.95.75.18,1.58.04,2.37.09,3.21.17,6.31.73,8.93,2.58,4.93,3.48,10.63,4.53,16.68,4.96,7.8.57,15.61,1.29,23.37,2.26,12.89,1.61,25.69,3.57,38.82,3.05,7.46-.3,15.04-1.14,22.45.89,3.49.95,6.43,2.06,8.47,5.32,1.96,3.12,3.4,2.83,6.15-.15,1.03-1.11,1.83-2.41,2.91-3.47,2.34-2.29,5.1-2.26,6.68.55,1.98,3.54,4.39,5.88,8.89,6.26,4.15.35,7.88-.06,10.87-3.09.79-.81,1.77-1.48,2.77-2.06,2.71-1.59,5.26-1.71,7.25.82,2.81,3.57,6.23,3.89,10.4,3.58,3.93-.29,8.03-.74,11.83-.06,10.18,1.84,20.41,1.53,30.67,1.63,4.84.06,9.09-.42,13.62-2.55,4.94-2.31,7.35,4.82,12.44,4.47,3.14-.22,6.31.08,9.47-.07,2.35-.11,4.7-.92,7.03-.82,16.52.75,33.03,1.62,49.53,2.54,4.71.26,9.57,1.73,14.05,1.01,5.26-.84,6.56-6.88,10.83-9.53,2.57.79,2.89,3.28,4.36,4.9,1,1.11,1.94,2.72,3.24,3.06,4.46,1.18,8.68,3.71,13.69,2.54,4.77-1.12,9.4-.41,14.05.8,6.55,1.7,13.26,1.87,20.03,1.42,6.23-.42,11.65-1.75,14.53-7.71.97-2.03,4.38-1.75,5.72.37,1.39,2.18,2.24,4.63,3.57,6.85,2.71,4.53,8.27,5.1,11.28.77,2.28-3.27,6.85-5.16,7.01-9.82.03-1.01,1.79-1.15,2.92-.55,2.85,1.52,4.98,3.58,5.54,6.73.37,2.14.57,4.34,1.22,6.42.59,1.82,1.89,3.2,4.38,2.77,2.34-.41,5.1-.1,6.94-1.19,5.8-3.42,11.13-2.69,16.71.26,1.27.67,3.33,1.05,4.59.58,6.38-2.38,12.45,1.06,18.77.46,6.31-.61,12.59.69,18.85,1.69,4.66.75,9.41,1,14.14,1.19,3.26.14,6-.77,8.21-3.48,1.84-2.27,4.5-4.09,7.09-5.7,1.76-1.1,3.94-.66,5.21,1.07.86,1.17,1.47,2.61,1.78,4,.53,2.47,1.86,4.34,4.66,3.91,4.07-.63,5.76,5.4,9.15,3.26,2.65-1.67,3.75-5.44,5.56-8.25.4-.62.83-1.27,1.39-1.76,1.27-1.12,2.89-1.59,4.08-.21,1.71,1.98,3.12,4.19,4.57,6.36,2.4,3.6,4.99,4.45,8.47,2.34,3.32-2.01,1.32-4.46.24-6.74-.48-1-1.2-1.91-1.55-2.94-.85-2.52,1.95-5,4.97-4.44,2.66.49,4.19,2.06,4.14,4.56-.03,1.79-1.18,3.77-.62,5.29.95,2.63,3.99,1.36,6.15,1.83,1.02.22,1.96,1.02,2.76,1.73,3.22,2.85,6.17,2.28,9.41-.14,1.79-1.33,4.05-2.24,6.23-3.01,1.56-.55,3.05-.09,3.71,1.65.77,2.06,2.1,2.01,3.28.4,1.09-1.48,2.32-3.02,1.92-5.02-.77-3.93-1.48-7.87-2.38-11.77-.24-1.02-.98-2-1.71-2.84-.45-.51-1.29-.93-2-1-1.28-.12-2.17.66-2.61,1.73-.88,2.12-.74,4.24-.16,6.44.36,1.36.46,2.92.1,4.26-.39,1.47-1.82,2.38-3.57,2.35-1.86-.03-3.05-1.1-2.89-2.71.22-2.15,1.02-4.25,1.4-6.39.49-2.77-1.32-4.27-3.96-3.05-4.6,2.14-8.78,3.24-12.68-1.12-1.59-1.79-4.13-1.96-6.54-2.14-5.59-.4-11.06-.73-15.54,3.48-1.18,1.11-2.64.29-3.96-.92-3.12-2.85-4.54-2.61-5.32.5-.35,1.41-.32,2.92-.69,4.33-1.1,4.23-5.29,5.68-8.93,3.02-2.16-1.58-4.75-3.54-3.86-6.31,1.25-3.87-1.61-5.6-4-6.98-2.79-1.6-5.86-3.75-9.6-2.62-1.16,2.57-1.95,5.05-3.32,7.21-1.44,2.26-4.55,3.02-7.36,2.11-2.47-.8-4.15-2.5-3.51-4.97.71-2.73-.52-4.15-2.89-5.18-2.86-1.24-5.71-2.52-8.63-3.63-4.97-1.89-8.75.05-10.32,5.24-.19.66.22,1.46.13,2.17-.22,1.63-1.3,2.63-3.03,2.9-2.13.33-4.26-.18-4.88-2.14-1.12-3.48-1.65-7.12-2.54-10.67-.8-3.2-.14-5.92,3.17-7.48,3.16-1.5,6.43-3.18,9.52.43,1.66,1.94,3.32,1.63,4.2-.85.37-1.04.45-2.22,1.04-3.12,2.16-3.28,6.2-3.8,9.02-1.24.83.76,1.63,1.63,2.15,2.58,2.65,4.87,7.21,5.12,12.18,4.4,4.46-.64,8.01-2.5,10.96-5.87,2.5-2.85,3.94-2.35,5.74,1.08,2.45,4.65,2.43,4.43,7.61,4.11,5.6-.35,11.33,2.22,16.84-.78.41-.22,1.4.48,2.13.76,1.81.69,3.71,1.25,5.42,2.14,2.82,1.47,4.28.03,5.86-1.84,2.3-2.73,3.24-5.56,2.94-9.13-.26-3.11,1.85-4.89,3.91-4.29,2.9.85,3.07,2.94,2.61,5.29-.28,1.43-.61,2.87-.61,4.3.02,1.56,1.04,2.92,2.58,3.39,5.05,1.55,10.04,1.25,15.08-.49,4.25-1.47,4.03-5.01,5.08-8.03.22-.63.88-1.13,1.34-1.68q3.28,8.9,13.53,9.18c1.18.03,2.34.45,3.52.45,7.07.06,14.37,1.07,21.15-.23,7.9-1.51,15.35-2.86,23.22-.37,2.34.74,4.44-1.51,4.21-4.03-.07-.71-.5-1.38-.62-2.1-.77-4.98.27-6.69,5.02-8.14,2.38-.73,3.71.57,4.73,2.27.82,1.37.45,2.77.2,4.24-.62,3.48,3.56,4.33,4.77,6.98.9,1.99,3.4.84,5.31.55,1.12-.18,2.34.1,3.52.22,2.51.25,3.57-1.17,4.05-3.09.36-1.42.49-2.89.71-4.34-1.57-.18-3.15-.31-4.7-.56-6.47-1.06-7.44-5.82-5.75-10.93.3-.89,1.48-1.77,2.49-2.18,1.59-.65,3.28-.07,4.14,1.22,2.04,3.11,3.82,6.36,5.7,9.56,3.44-1.24,3.99-5.07,7.83-7.61,1.19,6.43,5.39,7.24,10.71,5.49,5.4-1.77,10.83,1.22,16.31-.18,1.43-.37,2.76,1.13,3.21,2.68.1.34.17.73.14,1.08-.08.73-.23,1.44-.35,2.16-.3,1.79-.9,4.03,2.11,3.87,2.62-.13,2.56-2.33,2.38-4.22-.18-1.9-.1-3.79,2.15-4.61,5.4-1.98,5.98-6.46,6.56-10.79.58-4.34.74-8.71,1.05-13.07.21-3.06-2.18-7.76,2.28-8.55,5.56-1,5.03,4.55,5.88,7.71,1.08,4.03,3.32,6.47,7.65,7.41,1.48.32,2.93.83,4.25,1.22,3.83-4.11,7.53-7.79,6.27-13.56-.26-1.22.59-2.9,1.46-4.02.86-1.1,2.32-2.29,3.65-2.45,1.71-.22,2.63,1.51,2.9,2.91.41,2.12.15,4.37.63,6.47.46,2.01,2.32,2.93,4.48,2.84,1.8-.09,2.69-1.12,2.8-2.9.13-2.14.46-4.28.89-6.4.45-2.3,2.3-3.77,4.19-5.13,1.91-1.38,3.7.02,5.57.18,6.48.54,13.31,2.69,18.69-3.13,1.29-1.4,3.59-1.44,5.6-1.14,1.95.29,3.85.89,5.81,1.05,5.29.44,7.21-1.46,6.7-6.38-.16-1.45-.31-2.92-.63-4.34-.78-3.56-3.32-4.44-6.96-2.41-.98.55-1.76,1.39-2.7,2-.22.14-.92.02-1.04-.17-.37-.59-.84-1.28-.8-1.91.14-1.95,1.08-3.66,3.26-4.09,2.3-.45,5.03.14,6.98-.77,5.37-2.54,12.35-1.16,16.72-5.05,5.63-5.03,12.39-.63,18.11-3.01.36-.15.77-.18,1.15-.28,3.29-.85,5.02-2.89,3.87-5.65-2.02-4.84-2.55-9.93-3.52-14.93-.63-3.28-2.32-5.15-6.14-5.56-2.08-.22-2.14-1.72-.65-3.05.28-.26.72-.35.99-.61,2.23-2.14,2.01-2.7,0-3.79-4.57-2.46-11.4,1.26-14.72-4.66-.22-.39-2.19-.03-3.33.12q-8.15,1.1-15.63,8.23c-2.6-5.29.2-10.75-.63-16.08-.28-1.81,1.48-2.46,2.95-2.93,1.09-.36,2.32-.49,3.49-.49,6.27.02,9.44-3.03,10.12-8.59.09-.73,0-1.47.18-2.18,1.04-4.2,3.25-5.21,7.68-2.77,2.47,1.36,3.46,2.3,4.86-1.04,1.81-4.29,2.9-4.6,6.94-4.19,3.11.32,6.08,1.79,9.34.86,6.4-1.85,13.11-2.46,19.33-5.21,6.34-2.8,12.94-4.94,20.36-5.03,7.57-.09,14.74-2.64,21.16-6.55.53-.32,1.02-1.2.96-1.77-.07-.6-.71-1.43-1.31-1.63-6.44-2.21-13.19-2.06-19.91-1.98-7.12.1-14.29.52-21.21-1.41-3.24-.9-6.16-.71-9.17.67-2.87,1.33-5.36.83-7.16-1.79-1.41-2.06-3.82-3.57-5.94-2.28-3.85,2.35-7.42,1.16-11.22.64-2.32-.31-4.74-.04-7.03-.45-.85-.15-1.94-1.44-2.02-2.29-.1-.85.73-2.02,1.51-2.65.86-.67,2.13-.94,3.26-1.25,5.5-1.51,8.57-4.98,9.73-10.06.33-1.43.59-2.89,1.15-4.23.88-2.1,2.54-2.83,4.52-1.24,1.59,1.29,3.33,2.13,5.36,1.84,6.19-.87,12.74.96,18.63-2.31,1.25-.69,3.02-.88,4.54-.84,16.57.44,33.12-1.63,49.68-.09,4.07.38,7.9-.49,11.54-1.97,7.85-3.18,13.05-13.31,11.54-21.01-.81-4.12-6.31-6.1-5.41-10.55.78-3.87,5.58-5.6,6.29-10.17.76-4.92,3.67-9.57,5.79-14.29,1.54-3.41,3-6.85,2.51-10.59-1.16-8.98-5.46-17.45-5.12-26.69ZM68.69,394.76c-.2.38-1.32.43-2.02.49-.26.02-.77-.33-.8-.56-.18-1.35-.26-2.7-.31-3.38.67-2.7-.18-4.94,1.43-6.74.18-.22.61-.35.92-.35.33,0,.9.16.96.35,1.09,3.41,1.51,6.85-.19,10.19ZM78.22,417.81c-2.79-.53-2.95-2.03-2.61-3.98.53-3.2,1.77-4.68,3.71-3.99,2.32.82,3.8,2.29,3.52,4.76-.25,2.12-2.5,3.52-4.61,3.21ZM103.55,328.2c-.94-.5-2.23-1.09-1.76-2.2.17-.4,1.99-.45,2.96-.26,1.06.22,2.09.85,1.63,2.33-.77.88-1.81.68-2.82.13ZM129.72,735.06c-.5.31-1.72.41-2.01.1-1.51-1.6-2.91-3.23-5.32-3.83-1.59-.39-4.53.41-3.95-2.34.35-1.66,2.64-.77,4.65-.88,1.36.22,3.34.32,5.13.91,2.01.66,2.86,2.31,2.57,4.28-.1.64-.52,1.41-1.06,1.76ZM140.34,309.95c-1.74.18-3.01-.57-3.48-2.22.41-.57.72-1.44,1.29-1.62,1.73-.57,3.16.22,3.84,1.63.57,1.17-.37,2.08-1.65,2.22ZM153.96,309.92c-.3-.57-.61-1.13-.92-1.69.53-.38,1.04-.77,1.56-1.15.31.56.95,1.17.85,1.65-.1.47-.96.8-1.49,1.19ZM169.76,287.91c.32.02.77.35.88.62.47,1.33-1.91,3.64-3.6,3.56-.29-.2-.77-.35-.87-.61-.46-1.25,1.98-3.69,3.59-3.57ZM165.09,306.04c1.12-.03,2.25.04,3.36.18.96.14,1.24.65.88,1.29-.69.8-4.66.57-5.24-.33-.4-.61,0-1.12,1-1.14ZM158.52,753.35c-2.14-.62-2.85-2.1-2.61-3.99.15-1.12,1.12-2.04,2.31-1.53,1.95.83,2.39,2.6,1.94,4.42-.11.45-1.06.73-1.63,1.1ZM160.8,738.45c-.42.38-1.38.27-2.08.38-2.24-.8-2.51-2.49-2.12-4.31.4-1.85,1.48-3.21,3.78-3.24.33,0,.79.16,1,.39,1.43,1.55,1.17,5.15-.58,6.78ZM178.43,291.63c0-1.41,1.39-1.51,2.55-1.36,1.31.16,2.21.9,1.68,2.18-.2.48-1.17.69-1.79,1.03-1.21-.18-2.45-.64-2.45-1.84ZM176.52,735.88c-2.3.85-4.57.1-6.34-1.44-.92-.8-.84-1.95-.09-2.92,2.34-2.98,5.17-4.17,7.78-3.11,1.55.63,2.08,1.99,2.08,3.52-.26,1.96-1.67,3.3-3.44,3.95ZM188.18,756.47c-.16.07-.78-.33-.84-.6-.16-.69-.12-1.4-.12-1.47.06-1.36.11-2.1.11-2.82,0-.98.46-1.44,1.42-1.19.32.08.76.44.8.72.19,1.42.41,2.85.32,4.27-.03.41-1.05.82-1.69,1.09ZM201.42,733.36c.45-1.79,1.15-3.42,3.6-3.4,2.33.02,4.15,1.8,4.24,4.13.14,3.05-.87,4.3-4.3,5.34-2.9.88-4.73-.35-4.29-2.96.18-1.04.48-2.07.75-3.11ZM213.96,766.21c-1.94.04-3.9-.37-4.76-.47-3.05-.1-5.03-.08-6.98-.26-1.22-.12-2.35-.92-2.02-2.08.26-.91,1.26-1.76,2.14-2.36.53-.36,1.59-.42,2.25-.21,3.91,1.28,4.84-.81,5.22-3.72.77-5.81,2.88-11.28,5.33-16.64.26-.54,1.14-1.02,1.83-1.17,1.29-.29,2.29.39,2.72,1.47.55,1.35,1.04,2.74,1.26,4.16.63,3.95,1.23,7.92,1.62,11.89.54,5.52-2.89,9.26-8.61,9.38ZM287.31,65.99c1.87-.14,2.93.81,3.33,2.37.52,1.93-.85,3.44-2.93,3.56-1.94.04-3.22-.61-3.61-2.26-.42-1.85,1.05-3.5,3.2-3.67ZM268.65,65.43c.34-.06.89.04,1.11.26,1.65,1.62.77,3.44.21,5.11-.75,2.26-1.94,2.95-4.19,2.96-1.43-.11-2.45-.8-2.42-1.98.08-3.12,2.38-5.77,5.29-6.35ZM244.58,289.88c.92-.17,1.67.38,1.47,1.16-.33,1.29-1.55,1.3-2.74,1.15-1.03-.19-1.41-.77-.75-1.41.49-.47,1.31-.77,2.02-.89ZM232.89,745.22c-.32.13-1.04.11-1.11-.04-1.43-2.76-2.82-5.54-4.08-8.36-.05-.11,1.14-.91,1.83-1.05,4.42-.87,7.8,1.85,7.27,5.74-.72,1.76-2.06,2.97-3.91,3.71ZM256.46,766.45c-5.13.1-10.26-.21-15.37-.61-2.92-.23-4-2.14-2.1-4.6,1.97-2.53,1.59-5.61,3.36-8.08,1.2-1.67,2.61-2.64,4.81-2.61,2.47.03,3.47,1.59,3.91,3.43.51,2.12.58,4.34,1.04,6.47.53,2.4,1.56,2.64,5.37,1.4.7-.22,1.37-.53,2.06-.81.57,2.57,1.07,5.36-3.08,5.42ZM265.32,745.95c-1.71,3.85-2.22,7.44-1.75,11.49.23,1.92-2.14,2.65-3.93,3.35-1.23-5.05.47-10.79-4.3-15.05-.6-.53-.33-2.09-.14-3.12.44-2.54-1.16-3.16-3.36-3.25-1.57-.06-3.99,0-4-1.4-.02-2.46,2.89-1.75,4.56-2.06,1.45-.27,3.12,0,4.58.39,2.59.69,6.32-1.24,7.66,1.37,1.23,2.38,1.72,5.94.69,8.28ZM276.15,767.23c-4.94,1.12-7.37-.42-7.8-4.97-.18-1.79-.09-3.64-.58-5.34-1.15-3.93-.81-6.94,3.79-8.98,2.18-.96,2.51-3.49,2.14-5.78-.22-1.4-.67-2.85-.49-4.2.22-1.66,1.8-2.26,3.49-2.26,1.68,0,3.16.57,3.44,2.27.16,1.03-.18,2.12-.26,2.85-.96,2.07-1.09,3.99-.2,5.6,2.42,4.42,1.06,9.28,2.04,13.86.77,3.6-1.59,6.03-5.59,6.94ZM292.55,759.82c-3.23.82-7.13-1.6-7.77-5.05-.53-2.88-.4-5.79.5-8.56-.06-.8-.07-1.53-.2-2.24-.33-1.83-.78-3.76,1.63-4.66,2.47-.93,4.87-.35,6.29,1.63,2.37,3.32,4.73,6.74,6.41,10.37,1.65,3.56-1.52,7.14-6.86,8.51ZM389.96,764.48c-1.22,1.14-2.96,1.08-4.4.37-3.6-1.79-6.43-1.31-9.62,1.24-4.14,3.31-6.56,2.43-8.29-2.36-.34-.92-.26-1.98-.37-3.13-8.86,5.4-8.9,5.41-15.19,1.36-4.56,6.28-4.62,6.24-10.85,5.07-7.25-1.37-14.55-2.18-21.72.47-1.93.72-4.08,1.36-5.47-.25-2.59-2.97-5.38-2.02-8.51-1.2-1.96.51-4.02.03-4.82-2.07-.65-1.72,1.43-6.3,2.99-6.63,2.24-.49,3.31,1.64,5.12,2.17,2.3.66,4.11-.1,4.51-2.13.72-3.56,1.36-7.13,1.85-10.71.37-2.7-1.29-3.92-4.42-3.24-1.89.41-3.67,1.23-5.51,1.84-1.24.41-2.42.2-3.17-.75-1.28-1.57-1.55-3.43-.2-5.01.61-.7,2.3-1.4,3.01-1.1,4.42,1.84,8.91,2.68,13.77,2.26.92-.09,2.38.73,2.87,1.51,1.85,2.97,2.64,4,4.95-.08,3.11-5.49,6.08-5.41,10.8-.81.81.79,1.44,1.73,2.25,2.52.53.52,1.22.88,2.23,1.59,5.84-5.43,13.84-2.46,20.86-4.11,2.17-.51,4.66,1.02,5.38,3.42.74,2.46,1.53,4.81,3.69,6.53.67-1.61,1.46-3.19,1.94-4.85.65-2.2,1.95-3.05,4.28-2.23,1.1.39,2.12.97,3.15,1.51,2.87,1.49,6.46-1.41,9.02,1.08,2.89,2.8,1.46,6.92,3.31,10.24,1.68,3.04-1.24,5.42-3.45,7.49ZM420.13,758.06c-.78,2.06-1.68,4.07-2.63,6.07-1.24,2.61-3.12,3.39-5.54,1.64-3.31-2.39-6.41-3.76-10.7-2.3-1.71.59-2.89-1.15-3.16-2.57-.49-2.47-.57-5.01-.72-6.49.34-2.52.44-3.98.74-5.4.63-2.93,2.92-4.35,6-3.7,2.68.57,5.27,1.48,7.96,1.93,2.21.37,5-.89,6.47,1.43,1.81,2.86,2.85,6.03,1.56,9.39ZM426.75,791.62c-1.72-.07-3.17-.65-3.28-2.41-.09-1.7,1.18-2.57,2.91-2.69,1.81-.13,3.12.69,3.24,2.39.12,1.7-1.13,2.5-2.87,2.7ZM455.24,760.12c-2.65-.3-4.53-2.8-4.31-5.37.33-1.54,1.32-2.54,3.01-2.72,2.99-.32,5.23,2.5,4.59,5.83-.3,1.59-1.62,2.45-3.28,2.26ZM516.57,769.37c-.65-.26-1.63-.35-1.89-.8-.79-1.37-.66-2.79,1.09-3.47.47-.18,1.62.27,1.88.73.8,1.38.53,2.69-1.08,3.54ZM541.7,771.57c-.92.08-1.38-.51-1.3-1.32.57-1.26,1.69-1.41,2.88-1.12.98.24,1.22,1,.48,1.63-.52.45-1.34.74-2.06.81ZM577.74,55.03c1.22.18,1.2,1.51.93,2.53-.28,1.06-.97,1.8-2.32,1.71-1.28-.52-1.5-1.56-.92-2.47.5-.78,1.63-1.87,2.3-1.77ZM566.59,771.61c-1.96,2.1-4.42,2.72-6.2,1.54-1.81-1.19-2.29-2.85-1.75-5.75.42-1.15,1.03-3.27,1.98-5.25.9-1.9,4.79-2.1,6.14-.46,2.68,3.24,2.61,6.94-.16,9.93ZM610.12,31.58c.49.2.96,1.17.85,1.68-.11.52-.9,1.21-1.48,1.3-3.14.44-5.96-.38-9.36-2.84,4.1-1.16,7.09-1.36,10-.14ZM594.79,772.03c-2.57,2.02-8.79.6-9.95-2.28.02-.36-.11-.79.06-1.06,1.78-2.81,7.95-3.67,10.3-1.47,1.28,1.2,1.08,3.64-.41,4.82ZM601.74,792.55c-1.43-.03-1.86-1.13-1.64-2.29.22-1.1.88-2.18,2.22-2.12,1.38.06,1.79,1.12,1.67,2.3-.29,1.12-.94,2.14-2.26,2.1ZM651.2,42.23q-5.52.06-10.23-2.45,5.55-.04,10.23,2.45ZM612.78,771.07c-.39-2.01.8-3.52,2.86-4.2,4.54-1.48,7.46.6,9.76,3.91-2.73,1.24-5.01,3.52-8.32,3.39-2.09-.09-3.9-1.08-4.3-3.1ZM636.85,770.71c-1.63,1.74-3.68,2.74-6.1,2.15-1.79-.44-3.41-1.42-5.11-2.16,2.12-1.93,4.1-4.03,6.44-5.69,1.48-1.05,3.56-1.31,5.34-.06,1.5,1.04,1.19,3.9-.57,5.76ZM663.67,38.82c.58.33,1.21.61,1.71,1.02.18.16.16.7.02.98-.71,1.41-1.95,1.98-3.6,1.63-.29-.06-.73-.45-.73-.69,0-1.59,1.16-2.39,2.61-2.95ZM651.91,773.67c-1.8,1.7-4.07,2.02-6.43,1.23-.59-.2-.94-1-1.4-1.52-.04-1.63,1.05-2.62,2.42-3.34,1.71-.89,3.57-1.67,5.29-.14,1.27,1.12,1.41,2.56.12,3.77ZM663.15,775.54c-2.33-.12-3.86-2.15-3.79-4.77.06-2.61,2.01-4.72,4-4.34,2.69.5,6.14,4.28,5.28,6.13-1,2.16-3.3,2.79-5.49,2.98ZM694.66,777.55c-.91,2.02-2.79,2.31-4.85,1.95-.75-.14-1.61-.37-2.13-.83-3.24-2.97-6.86-4.48-11.57-3.43-1.08.24-2.18-.82-2.15-2.06.06-2.3,1.57-4,3.23-5.53,1.92-1.78,3.83-2,6.11-.24,2.41,1.85,5.25.27,7.91.32,3.84.06,5.54,2.17,4.75,6.23-.31.87-.71,2.26-1.31,3.59ZM811.04,795.17c.49.26,1.03,1.19.89,1.63-.39,1.18-1.54,1.46-3.04,1.16-.34-.37-1.07-.83-1.24-1.42-.37-1.28,1.8-2.22,3.39-1.38ZM735.63,801.68c1.37-.46,1.84.78,2.03,1.88.06,1.43-.09,2.85-1.35,3.84-.5.39-1.59.79-1.99.56-1.62-.93-.74-5.59,1.3-6.28ZM706.97,803.81c-1.28,1-2.72,1.65-4.27.74-1.67-.99-3.01-2.33-3.47-4.77,1.15-2.55,2.42-5.52,3.87-8.43.13-.26,1.76-.31,2.09.03,1,1.07,1.66,2.41,2.53,3.59,3.44,4.57,3.36,5.6-.76,8.83ZM708.9,776.79c-.53.34-1.47.14-2.57.22-.59-.65-1.69-1.36-1.95-2.26-1.4-4.83.25-8.58,4.74-11.15,1.18-.68,2.45-.22,3.06.73,2.57,4.03,1.09,9.57-3.28,12.47ZM729.44,29.35c-1.51.34-3.1.39-3.7-1.43-.72-2.14.98-4.66,3.3-4.85,1.16-.1,2.41-.25,3.47.06,2.14.62,4.74-.91,6.68,1.36-1.96,3.79-6.06,4.01-9.75,4.85ZM733.62,79.22c-.65-.25-1.59-.33-1.91-.78-.81-1.14.84-3.18,2.95-3.56.53-.1,1.51.33,1.77.78.82,1.44-.64,3.2-2.81,3.56ZM743.13,36.88c-1.83,2.37-5.98,2.54-7.98.45-.23-.24-.26-.65-.37-.97.32-.6.47-1.41.99-1.76,2.03-1.39,4.3-1.32,6.48-.34,1.09.49,1.63,1.64.89,2.62ZM751.6,59.72c-2.09-.08-3.6-.97-3.94-2.94.55-.73.86-1.62,1.41-1.77,2.42-.65,4.53,0,6.14,1.81.19.22.21.69.1.97-.64,1.59-2.14,1.99-3.71,1.93ZM762.21,84.52c-.35-.13-.73-.2-1.05-.38-1.7-.98-2.11-3.9-.64-5.77,1.28-1.6,3.05-2.17,5-.96.6.37,1.24,1.06,1.32,1.67.31,2.12-2.4,5.18-4.63,5.44ZM789.65,93.15c-1.14.2-2.33.19-2.59.21-6.34,0-8.71-3.88-8.23-10.11.06-.75,1.37-1.87,2.27-2.02,2.28-.41,4.64-.4,6.98-.52,4.81-.24,7.1,1.15,7.62,4.59.63,4.11-1.63,7.08-6.05,7.85ZM792.52,36.49c-.53-.09-1.21-.97-1.24-1.51-.02-.37.97-1.11,1.52-1.11,1.12-.02,2.24.33,2.46.37,2.39.08,3.88.1,5.36.22.15.02.37.63.33.94-.03.33-.25.79-.53.91-2.58,1.13-5.27.64-7.89.18ZM784.97,768.61c-.72-.08-1.47-1.09-1.31-2.62.13-1.12.96-1.86,2.22-1.82,1.75.06,2.63,1.05,2.34,2.63-.19,1.03-.85,1.91-3.25,1.81ZM814.02,36.41c-.39-.53-1.1-1.08-1.1-1.6.04-2.86,2.65-4.82,6.16-4.57.5.04,1.37.92,1.33,1.36-.2,2.5-3.72,5.05-6.39,4.81ZM822.62,59.92c-.88-.76-1.79-1.51-1.16-2.67.28-.52,1.1-1,1.75-1.11,1.57-.26,3.37-.15,3.97,1.4.62,1.61.64,3.41,1.36,7.84-3.27-3.03-4.55-4.29-5.93-5.46ZM859.03,72.82c-1.08-.81-1.31-1.79-.81-2.85.69-1.47,2.63-1.86,3.7-.74.84.88.84,1.87.11,2.85-.7.92-2.16,1.25-3.01.75ZM859.66,765.51c-.54.41-1.44.44-2.16.65-1.55-.03-3.44-2.65-2.95-4.15.84-2.57,2.66-4.45,5.21-5.62,1.2-.55,2.38.19,2.66,1.3.8,3.07-.08,5.77-2.76,7.82ZM886.96,74.81c-1.76-.03-2.96-1.07-3.01-2.68-.07-2.22,2.38-4.59,4.26-4.25,1.61.3,2.75,1.27,3.21,2.79.2,2-2.04,4.19-4.46,4.14ZM891.2,762.48c-.25.26-.6.52-.95.58-1.13.19-2.27.29-3.21.41-.92-.29-1.81-.35-2.3-.78-.43-.37-.77-1.51-.53-1.73.76-.69,1.76-1.46,2.74-1.55,1.92-.16,3.9.14,4.75,2.14.1.22-.25.67-.49.92ZM901.7,748.63c-2.05.09-3.22-1.45-2.81-3.56.42-2.15,2.28-3.78,3.65-3.13,1.9.89,2.1,2.68,2.46,4.3-.5,1.56-1.66,2.33-3.3,2.4ZM921.08,743.03c-2.09-.41-1.95-2.04-2.22-3.36-.38-1.77-.56-3.57-.79-5.18.61-.73.96-1.54,1.54-1.71.44-.13,1.44.42,1.69.9.85,1.62,1.58,3.31,2.15,5.04.62,1.87-1,4.58-2.37,4.31ZM933.96,725.09c-1.34.1-2.09-.64-2.18-1.7-.03-.46.67-1.32,1.17-1.43,1.27-.27,2.1.52,2.15,1.62.02.49-.74,1.01-1.14,1.51ZM965.03,733.65c-.67-.29-1.69-.41-1.94-.88-.75-1.44-.56-2.92,1.1-3.74.38-.19,1.68.37,1.86.81.53,1.37.7,2.86-1.02,3.81ZM983.14,756.58c-4.24,2.02-13-2.33-13.75-6.78-.12-.7-.08-1.43-.14-2.91.37-.98.81-2.73,1.68-4.27,1.41-2.46,4.77-2.82,6.91-1.06,4.34,3.56,5.64,8.35,6.46,13.34.08.51-.59,1.4-1.16,1.67ZM1059.24,707.46c-1.91.02-2.52-1.36-2.55-2.87-.03-1.26.88-1.96,2.18-2.02,1.65-.06,3,.43,3.25,2.2-.25,1.55-1.19,2.66-2.88,2.69ZM1067.16,591.65c-.13.25-.72.51-.97.44-.7-.2-1.74-.45-1.93-.92-.53-1.34-.71-2.81-.88-3.53.09-2.34.84-3.46,2.7-3.68,1.99-.24,3.43,1.52,2.82,3.69-.38,1.39-1.1,2.69-1.75,3.99ZM1090.03,666.03c1.62-.32,3.29.03,4.15,1.28.77,1.13.9,2.63,1.09,3.28-.77,4.67-1.3,8.58-2.14,12.42-.18.83-1.4,1.99-2.25,2.08-1.87.2-2.67-1.34-2.7-2.76-.08-4.64.1-9.29.12-13.93,0-1.21.43-2.1,1.74-2.37ZM1091.07,544.17c.54.22,1.17,1.04,1.12,1.54-.12,1.14-1.1,1.65-2.36,1.59-1.16-.37-1.95-1.08-1.48-2.21.45-1.1,1.65-1.36,2.73-.92ZM1087.98,594.83c-.3.41-1.41.64-2.02.5-.66-.15-1.32-.74-1.71-1.3-.41-.57-.88-1.51-.65-2,3.1-6.07,2.75-12.43,2.18-18.84-.05-.53.69-1.4,1.28-1.63,1.18-.46,2.21.18,2.94,1.05,2.57,3.03,2.4,6.74,2.97,10.59-.57,4.07-2.38,8-4.99,11.62ZM1120.81,553.64c-.34.53-1.22.98-1.88,1.02-.64.03-1.59-.35-1.92-.84-1.89-2.78-1.87-5.93.07-7.82.43-.42,1.41-.61,2.07-.52.68.1,1.59.57,1.83,1.09.57,1.28.81,2.67,1.14,3.83-.5,1.29-.73,2.37-1.32,3.24ZM1131.68,324.19c-.56-.65-1.55-1.35-1.78-2.21-.29-1.16.87-1.81,1.99-1.92,1.47-.14,1.91.89,1.84,1.99-.06,1-.36,2.01-2.06,2.14ZM1133.05,549.67c-.43-.28-1.47-.78-1.4-.94.31-.86.69-1.96,1.44-2.36,1.06-.57,2.12.05,2.06,1.28-.05,1.04-.76,1.86-2.1,2.02ZM1148.27,329.22c-1.07.41-2.18.73-3.17,1.05-.43-.26-.73-.43-1.03-.61.41-.5.77-1.37,1.25-1.44,1.06-.16,2.18.09,3.28.18-.1.29-.13.75-.33.83ZM1145.91,558.45c-.59-.19-1.39-1.09-1.32-1.55.17-.97.61-2.12,1.38-2.75,1.5-1.24,3.4-1.92,5.35-.81.53.31.64,1.22.94,1.85-.52,2.55-3.48,4.14-6.35,3.25ZM1179.67,414.92c1.32-.08,1.79,1,2.04,2.03.24,1.03.61,2.06.6,3.08,0,.57-.58,1.43-1.12,1.59-.55.18-1.72-.12-1.98-.55-.71-1.16-1.08-2.5-1.34-3.16.26-1.75.48-2.92,1.79-3ZM1178.81,435.43c-1.52-.12-2.97-1.13-2.94-3.25.02-2.15,2.55-4.14,4.72-3.68,2.12.45,3.25,1.84,2.85,3.93-.37,1.97-1.58,3.19-4.62,3ZM1184.36,402.8c-.59-.02-1.57-.57-1.65-1-.21-1.15.56-1.86,1.97-1.87.48.29,1.41.57,1.52,1.01.32,1.24-.62,1.9-1.84,1.85Z"/>
  <path d="M679.15,825.03c-.29.58-.74,1.13-.86,1.74-.81,4.13-1.21,4.57-4.4,4.53-2.39-.04-5.09.18-6.66-1.63-2.74-3.14-6.92-3.29-10.37-4.9-4.56-2.14-8.27-1.82-11.34,2.25-2.15,2.83-4.13,2.26-6.78.08-2.49-2.05-4.16-1.5-5.68.92-.99,1.56-1.61,3.32-2.61,4.88-.26.41-1.31.48-2.01.53-.23.02-.61-.46-.73-.77-.26-.69-.73-1.51-.52-2.1,1.36-3.9-1.36-6.1-3.86-8.47-3.18-3.04-6.39-1.79-9.73-.3-1.4.62-2.99,1.14-4.52,1.21-4.05.18-6.19,1.99-7.9,5.44-1.92,3.83-6.33,3.78-7.83-.02-1.16-2.95-2.02-5.56-5.84-5.93-3.53-.33-6.94-3.8-10.12-2.09-6.18,3.34-11.69,3.09-17.47-.22-.29-.18-.78-.11-1.16-.07-9.02.96-18.02,2.01-27.06-.23-2.3-.57-4.66.74-6.36,2.39-1.63,1.57-1.01,3.35-.23,5.07.15.33.36.74.27,1.05-.2.65-.5,1.74-.88,1.79-1.05.13-2.46.14-3.18-.41-2.7-2.04-2.61-6.69-6.65-7.26-6-.85-12.3-3.76-18.04,1.06-1.57,1.32-3.73,1.55-5.49.37-6.39-4.24-13.58-3.13-20.57-2.54-3.96.33-7.82,1.15-11.71-.1-5.04-1.62-9.16,1.99-13.7,2.08-5.04.11-9.57-3.43-14.9-2.87-1.17.13-2.39.35-3.44.81-3.43,1.5-6.87,1.49-10.39.42-2.69-.81-5.41-.61-8.2-.6-6.3,0-12.62-.3-18.89-.8-2.76-.22-5.52-1-8.21-.14-5.09,1.59-10.09,1.3-15.21.23-3.48-.73-7.03-.73-10.62-.16-2.7.43-5.5.61-8.24.57-15.79-.27-31.63-1.55-47.35-.72-17.04.91-33.94-.88-50.92-.46-8.24.21-16.5-.36-24.75-.5-3.55-.06-7.15-.32-10.43,1.44-2.02,1.08-3.98,2.34-6.12,3.2-2.06.82-4.65-1.41-7.92,2.14,7.76.92,13.52,4.5,20.54,5.88,26.13,5.1,52.81,3.22,79.14,5.58,8.3-1.66,16.52.33,24.77.32,8.24,0,16.41-.82,24.73.44,5.73.86,11.97-.85,17.61.24,5.55,1.08,10.04-1.36,14.82-1.5,4.62-.12,9.26,3.44,14.59,2.89,1.96-.21,4.01,0,5.89-.47,3.91-.96,7.7-.53,11.66-.38,6.44.24,13.3,2.69,19.48-1.51.78-.53,2.47-.61,3.39-.21,7.45,3.23,15.58,2.09,23.32,3.28,6.16.95,11.74.66,17.05-2.54,1.73-1.04,4.02-1.62,5.49-.12,2.63,2.67,5.16,2.73,8.37,1.06,1.79-.92,3.89-.73,5.6.51,3.06,2.22,6.62,2.62,10.14,1.8,5.15-1.2,11.15,2.16,15.66-2.63.78-.84,2.26-.1,3.01.78,1.69,1.99,3.92,2.39,6.38,1.83,3.17-.72,6.22-.77,9.31.33,3.56,1.27,6.93.89,10.16-1.11,1.96-1.21,4.3-2.92,6.52-2.07,4.38,1.67,9.53.45,13.54,3.37,3.75,2.75,7.01,1.69,10.64-.85,5.05-3.53,5.88-3.6,9.96.41,4.57,4.46,9.05,5.44,14.62,2.02.97-.61,2.07-1.06,3.14-1.54,2.35-1.06,4.84-1.13,6.56.69,3.28,3.46,7.46,3.55,11.89,3.52,4.74-.04,9.58-.31,14.21.43,5.86.93,9.06-1.17,10.87-5.96.39-1.03.44-2.18.99-3.12.68-1.15,2.1-1.24,3.09-.53,1.21.88,2.52,1.97,3.06,3.23,1.91,4.47,5.05,6.1,10.4,6.44,3.22.21,4.96-.15,7.05-2.1,5.68-5.3,6.61-11.34,3.72-18.04-.24-.57-1.16-.87-1.78-1.29Z"/>
  <path d="M737.13,848.38c5.41-.14,9.78,1.18,14.02,4.1,1.98,1.37,5.1-.64,4.97-2.93-.06-1.08-.42-2.13-.82-3.94,0-.69.06-2.15-.06-3.6-.4-4.5-.46-5.09-5.51-5.17-4.38-.07-6.13-2.29-8.32-5-2.46-3.05-4.22-2.89-7.7-.15-.89.69-1.67,2.05-2.55,2.09-1.95.08-2.17-1.63-2.63-3.06-1.32-4.04-1.48-4.27-6.11-2.82-3.27,1.02-6.08.87-9.09-.49-6.13-2.76-6.34-2.73-7.4,2.8-.49,2.59-1.32,4.94-2.92,7.06-1.04,1.36-2.68,1.89-3.78.33-1.94-2.77-3.87-5.53-7.04-7.21-.88-.47-2.45-.64-3.26-.21-.82.43-1.4,1.71-1.55,2.69-.4,2.65,1.03,4.94,2.18,7.25,1.69,3.41,4.03,5.33,8.47,6.47,8.4,2.16,17.29,1.06,25.51,4.05,2.47.9,5.55.45,7.57-1.87,1.98-2.26,4.02-.36,6.02-.41Z"/>
  <path d="M894.25,859.21c-.72.3-1.4.69-2.06,1.1-2.38,1.48-4.91,2.4-7.81,1.84-2.73-.51-3.37-2.84-4.62-4.66-.86-1.25-2.22-2.72-3.71-2.33-3.72.97-8.13-.72-11.26,2.26-3.24,3.09-5.5,1.66-7.65-1.09-1.24-1.59-3.02-2.87-5.02-1.93-5.67,2.67-11.53-2.97-17.22.62-1.12.7-2.87-.75-3.94-1.88-2.55-2.71-5.12-5.4-7.94-8.37-1.71,5.93-1.87,6-.98,7.67,1.21,2.26,2.61,4.43,4.11,6.54.33.45,1.42.59,2.16.61,1.18.03,2.37-.28,3.55-.26,7.32.15,15.15-1.98,21.17,4.15.56.57,2.32.57,3.31.26,2.81-.91,5.43-.18,8.16.22,10.56,1.51,21.35.59,31.88,2.61,2.03.39,3.56-1.25,3.7-3.43.23-3.79-2.22-5.46-5.84-3.93Z"/>
  <path d="M857.81,813.89c1.91.29,3.91.1,5.84.32,2.3.26,4.62.55,6.84,1.13,2.42.64-.44,4.55,3.78,4.77.96-4.06,4.54-7.78,3.53-12.12-1.24-5.35-.8-10.75-1.38-16.82-4.74.55-7.22,3.42-11.2,2.71-3.16-.56-5.01,1.71-5.19,4.64-.18,3-1.27,5.58-3.07,8.06-.83,1.13-1.14,2.66-1.38,4.06-.27,1.56.4,2.97,2.23,3.25Z"/>
  <path d="M766.72,839.24c1.85,4.03.52,8.1,3.09,11.6.81,1.1,2.24,1.18,2.93.08.75-1.2.78-2.79,1.4-4.1.19-.41,1.27-.55,1.97-.65.24-.04.73.37.83.65.24.66.32,1.38.45,2.08,1.04,5.33,2.78,6.35,7.6,4.4,1.08-.44,2.1-1.04,3.05-1.68,3.01-2.02,6.09-2.02,8.59.37,3.86,3.7,8.27,2.82,14.92,2.23-8.83-5.6-13.35-13.05-21.73-16.89q-9.29,4.29-23.09,1.9Z"/>
  <path d="M767.23,861.98c-1.59-.6-3.01.36-4.08,1.52-1.75,1.94-4.14,3.66-5.07,5.89-1.53,3.64-4.8,4.54-8.04,5.74-5.57,2.06-11.51,2.12-17.36,2.65-.59.06-1.47.74-1.59,1.26-.29,1.28.6,2.01,1.97,1.91,10.95-.79,21.9-1.63,32.84-2.46.39-.03.79-.08,1.16-.18.74-.22,1.56-.37,2.2-.77,1.27-.77,2.91-1.45,3.53-2.58,1.16-2.1-2.59-2.28-2.47-4.39,3.67-1.01,7.41-1.99,11.1-3.13.5-.16,1.02-1.16.97-1.73-.05-.53-.77-1.32-1.33-1.42-4.58-.88-9.38-.64-13.84-2.31Z"/>
  <path d="M962.51,783.84c-4.53,1.29-8.96,2.73-13.77,3.01-1.32.08-2.84,1.26-3.73,2.31-1.68,1.98-3.9,4.93-2.4,6.78,2.28,2.79,4.78-.27,6.95-1.55,4.61-2.72,4.59-2.74,8.67.16,2.95,2.1,4.86,1.98,6.94-.43,1.49-1.73,2.83-3.52,2.48-5.92,0-3.01-2.38-5.15-5.15-4.36Z"/>
  <path d="M903.47,790.17c-1.5,1.13-2.89,2.43-4.09,3.83-.96,1.12-1.49,2.56-2.38,3.74-.4.53-1.2,1.08-1.84,1.09-1.37.03-1.87-1.05-2.09-2.11-.22-1.06-.2-2.16-.37-3.24-.19-1.17-.83-1.99-2.24-1.42-.67.28-1.61.9-1.65,1.42-.29,3.55-.37,7.1-.53,11.19,3.44.96,5.58-.35,7.88-.61,6.58-.76,10.3-4.89,13.22-9.77.93-1.55,1.32-3.64-.61-4.95-1.87-1.28-3.77-.33-5.3.84Z"/>
  <path d="M79.63,743.01c-.32-.53-1.15-1.06-1.79-1.12-1.29-.1-2.14.71-2.36,1.86-.21,1.05,0,2.2-.32,3.21-.33,1.08-1.33,1.91-2.63,1.73-.62-.09-1.37-.73-1.67-1.3-1.89-3.63-2.89-7.42-2.46-11.5.03-.27-1.16-.73-1.84-.96-.25-.08-.75.22-.98.46-1.59,1.71-2.86,3.76-2.09,5.93,1.21,3.38,2.73,6.71,4.59,9.83,1.32,2.21,3.38,4.07,6.51,3.62,7.18.1,8.67-1.6,6.84-7.77-.41-1.38-1.06-2.73-1.8-3.99Z"/>
  <path d="M915.46,788.93c-2.31,2.31-1.83,5.48-3.02,8.13-.71,1.61.13,2.78,1.77,3.44,2.04.81,4.01.43,5.31-1.13,1.99-2.42,2.02-5.42,2.37-8.69.2-1.07.34-2.59-1.37-3.36-2.16-.96-3.67.22-5.05,1.62Z"/>
  <path d="M121.5,286.38c-.66-.74-1.65-1.68-2.55-1.73-6.45-.36-12.95-1.04-18.89,2.13,6.15.61,12.28,1.24,18.43,1.79,2.09.18,3.87-1.22,3.01-2.19Z"/>
  <path d="M1099.6,760.5c-.43.16-.8,1.28-.64,1.83.16.56,1.02,1.39,1.52,1.36,5.08-.32,10.33.22,15.03-2.16.92-.46,1.47-1.56,2.14-2.31-.36-.52-.58-1.08-.77-1.08-5.84.33-11.73.37-17.28,2.37Z"/>
  <path d="M981.12,788.62c-.66.13-1.41.81-1.67,1.4-.23.49.09,1.75.32,1.79,1.47.22,3,.18,7.05.32-.61-.06,1.32.31,3.24.27,1.62-.04,2.97-.97,3.71-2.34.31-.6.47-1.46.24-2.03-.22-.57-1.11-1.37-1.59-1.31-3.79.52-7.56,1.16-11.3,1.91Z"/>
  <path d="M832.05,823.23c-.82-.66-1.96-1.38-2.96-1.36-5.1.08-10.06.81-13.82,5.23,4.64-.37,9.29-.73,13.93-1.15,1.71-.16,3.63-2.11,2.85-2.73Z"/>
  <path d="M1181.51,314.51c.24-.07.33-.61.48-.92-.51-.48-1.07-1.4-1.53-1.36-4.3.33-8.61.75-12.89,1.32-1.24.17-2.08,1.22-1.6,2.44.2.52,1.17,1.08,1.83,1.12,4.81.28,9.25-1.24,13.71-2.6Z"/>
  <path d="M934.99,787.74c-.88.04-2.15,1.04-2.45,1.86-.6,1.67-.66,3.51-.99,5.54-.02.45-.25,1.24-.02,1.87.21.57.87,1.28,1.44,1.38.6.1,1.51-.28,1.99-.72,2.06-1.95,2.14-4.5,2.26-7.02.07-1.56-.28-3.01-2.23-2.91Z"/>
  <path d="M334.09,795.43c-10.45-3-18.06-2.52-15.6-.59,4.83,3.8,10.36.24,15.6.59Z"/>
  <path d="M891.46,811.79c.49-.77.25-1.46-.62-1.84-.29-.12-.83-.1-1.07.08-3.03,2.29-6.01,4.65-6.09,8.66-.02.51.73,1.03,1.13,1.54.62-.36,1.45-.59,1.81-1.1,1.69-2.4,3.27-4.87,4.84-7.33Z"/>
  <path d="M1069.03,763.39c-.14,1.64.45,2.89,2.33,3.26,2.12.42,4.43-1.07,4.22-2.71-.22-1.64-1.43-2.53-3.11-2.76-1.79-.23-3,.54-3.44,2.21Z"/>
  <path d="M1007.59,762.22c.16-.26.26-.77.1-.94-1.52-1.68-8.79-2.96-10.44-1.83-.23.17-.33.69-.26,1,.17.67.29,1.49.77,1.94,1.27,1.16,2.9.53,6.01.39-.07,0,1.46.08,2.98.07.28,0,.65-.35.82-.62Z"/>
  <path d="M6.98,439.84c.22-2.21-1.52-3.01-3.58-3.17-1.67-.14-3.25.43-3.39,2.07-.18,2.15,1.69,2.85,3.53,3.26,1.8.05,3.28-.48,3.44-2.16Z"/>
  <path d="M72.61,764.76c-.47.19-.55,1.23-.88,2.03.12.91.09,2,.41,3,.45,1.35,1.16,2.97,3.11,2.08.75-.33,1.2-1.82,1.2-2.77,0-.99-.64-2.02-1.2-2.93-.55-.88-1.32-1.94-2.64-1.42Z"/>
  <path d="M901.37,807.5c-1.12.08-2.25.61-3.24,1.13-.61.32-1.36,1.04-1.33,1.55.02.51.83,1.16,1.46,1.44,1.03.47,2.19.69,3.02.93,2.14-.09,3.47-.93,3.36-2.62-.1-1.63-1.53-2.56-3.27-2.44Z"/>
  <path d="M716.73,878.89c-.53.29-1,1.21-.89,1.73.1.43,1.17,1.07,1.67.97,1.43-.28,2.85-.77,4.14-1.41.54-.27.76-1.1,1.12-1.67-.62-.32-1.25-.63-2.27-1.15-1.09.43-2.51.85-3.76,1.53Z"/>
  <path d="M1008.19,785.11c-2.11,0-3.57.92-3.26,2.2.28,1.14,1.24,1.86,2.53,1.81,1.68-.06,3.16-.82,3.28-2.44.1-1.3-1.39-1.45-2.54-1.57Z"/>
  <path d="M251.64,793.2c-.05-1.71-1.79-2.15-3.32-1.95-.96.14-2.08.77-2.68,1.5-.84,1.03.69,2.42,2.69,2.5,1.53-.1,3.36-.19,3.31-2.05Z"/>
  <path d="M1116.27,740.78c-1.36-.57-3.16.73-2.85,2.05.12.48.92.82,1.39,1.21,1.24-.06,2.16-.66,2.39-1.71.1-.45-.44-1.34-.92-1.55Z"/>
  <path d="M51.57,519.13c-1.64-.61-3.23.38-3.13,1.96.07,1.16.74,1.95,2.07,2.27,1.04.16,2.1-.55,2.46-1.7.4-1.25-.18-2.08-1.4-2.54Z"/>
  <path d="M1052.67,766.01c-.35,1.15.2,2,1.13,2.26,1.71.19,2.58-.49,2.76-1.63.17-1.09-.33-2.26-1.55-2.48-1.28-.24-2.03.83-2.34,1.85Z"/>
  <path d="M796.36,13.49c-.09-1.23-1.12-1.91-2.41-1.92-1.3,0-2.19.65-2.45,1.89.29,1.28,1.35,1.73,2.56,1.83,1.33.11,2.39-.46,2.3-1.8Z"/>
  <path d="M928.9,810.42c.81.22,1.43-.09,1.58-.96.17-1,.15-2.02.22-3.04-.67.05-1.64-.14-1.94.19-1.11,1.22-1.01,2.57.14,3.81Z"/>
  <path d="M1039.34,766.56c-.65.91.73,2.06,1.99,1.59.61-.22,1-.93,1.49-1.43-.53-.39-1.07-1.09-1.62-1.1-.62-.02-1.51.44-1.87.94Z"/>
  <path d="M373.92,755.85c2.24.58,4.66.56,6.67-.92.26-.18.47-.71.36-.94-.29-.62-.69-1.59-1.18-1.67-2.63-.39-5.31-.57-7.97-.81-.03,1.77-.15,3.73,2.12,4.33Z"/>
  <path d="M371.8,751.53c0-.06-.02-.12-.02-.18-.03-.02-.04-.06-.07-.1-.04.09-.07.18-.1.26.06,0,.13.02.19.02Z"/>
  <path d="M326.96,752.69q-.15,7.45,6.84,5.15c-1.31-.88-2.53-1.67-3.72-2.51-1.12-.8-1.14-2.7-3.12-2.64Z"/>
  <path d="M350.66,753.48c-.33-.06-.8.1-1.06.32-1.34,1.06-1.71,2.57-.95,3.86.87,1.47,2.24,2.69,3.42,4.02.33-1.66.85-3.31.88-4.97.02-1.36-.41-2.87-2.3-3.23Z"/>
  <path d="M352.02,761.9l.16-.1s-.07-.1-.11-.14c-.02.07-.03.15-.05.23Z"/>
</svg>