<?xml version="1.0" encoding="UTF-8"?>
<svg id="objects" xmlns="http://www.w3.org/2000/svg" viewBox="0 0 487 389">
  <defs>
    <style>
      .cls-1 {
        fill: #212123;
      }
    </style>
  </defs>
  <polygon class="cls-1" points="53.32 381.47 59.22 380.26 54.02 380.99 53.32 381.47"/>
  <path class="cls-1" d="M106.91,384.62c.45.08.58.13.85.19.81-.02,1.92-.03,3.82.01-1.24-.76,4.32-.7-4.67-.2Z"/>
  <path class="cls-1" d="M107.76,384.8c-3.95.09,2.59.63,0,0h0Z"/>
  <path class="cls-1" d="M126,384.2l-5.2.73c1.09.45,5.72.51,4.01.85,5.34-.42,4.23-.87,1.19-1.59Z"/>
  <path class="cls-1" d="M130.92,382.71l-2.69.31c.47.19,1.19.25,2.69-.31Z"/>
  <path class="cls-1" d="M125.6,383.27c.46-.59-.66-.02-3.09.42l5.71-.66c-.76-.31-.84-.95-2.62.24Z"/>
  <path class="cls-1" d="M117.79,382.05c-9.95.36-8.47,1.74,1.48,1.37-2.92-.41-6.7-.64-1.48-1.37Z"/>
  <path class="cls-1" d="M158.42,384.94c.32-.42-1.76-1.11-2.15-1.64l-3.84.52c1.98.27,5.73.5,5.99,1.12Z"/>
  <path class="cls-1" d="M156.27,383.3l5.74-.78c-5.14-.04-6.07.31-5.74.78Z"/>
  <polygon class="cls-1" points="122.39 382.11 133.65 380.47 131.83 380.51 122.39 382.11"/>
  <polygon class="cls-1" points="177.14 385.79 182.93 384.27 180.39 384.79 177.14 385.79"/>
  <path class="cls-1" d="M194.96,384.48c-2.41.83,3.32,1.33.77,1.86,3.96-.18,7.33-.91,10.37-1.56-3.23.38-6.68.32-11.14-.3Z"/>
  <path class="cls-1" d="M211.2,383.82c-1.61.21-3.28.57-5.1.96,1.72-.2,3.4-.49,5.1-.96Z"/>
  <path class="cls-1" d="M171.81,382.64c.45.25,1.31.91,4.54,1.16l-2.27-1.16c-.69,0-1.47,0-2.26,0Z"/>
  <path class="cls-1" d="M174,382.6l.08.04c2.45.01,4.16.02,4.89.02-.63,0-2.12-.03-4.97-.06Z"/>
  <path class="cls-1" d="M171.24,382.64c.21,0,.36,0,.57,0-.22-.11-.35-.15-.57,0Z"/>
  <path class="cls-1" d="M161.87,382.07l6.55-.89-6.11-.21c.12.31,1.23.76-.44,1.1Z"/>
  <polygon class="cls-1" points="168.42 381.18 170.69 381.26 171.41 380.78 168.42 381.18"/>
  <path class="cls-1" d="M200.73,382.81c2.63-.54,5.52-.61,8.78-.73-3.5-.2-7.11-.29-10.54-.25-.48.38-1.98,1.06,1.76.98Z"/>
  <path class="cls-1" d="M187.74,382.6c.18-.02.41-.05.59-.07-.36-.1-.65-.13-.59.07Z"/>
  <path class="cls-1" d="M241.61,381.77c-.18-.07-.34-.14-.52-.21-.04.07-.07.14-.12.21h.64Z"/>
  <path class="cls-1" d="M198.37,381.61c-2.63-.2-4.2.1-5.69.48,1.96-.14,4.04-.24,6.28-.27.22-.17.26-.28-.59-.22Z"/>
  <path class="cls-1" d="M220.15,383.18c-1.37-.23-2.92-.43-4.56-.61,1.34.36,4.07.92,4.56.61Z"/>
  <path class="cls-1" d="M189.21,382.85c-.13.02-.25.04-.39.06.86.25.76.12.39-.06Z"/>
  <path class="cls-1" d="M189.21,382.85c1.35-.18,2.41-.49,3.47-.76-1.6.11-3.08.25-4.36.44.33.08.65.21.89.32Z"/>
  <path class="cls-1" d="M229.58,381.57l-2.48.16c2.83.16,4.87.58,8.61,1.4,4.13-.58,4.98-.99,5.26-1.36l-12.23-.03.85-.17Z"/>
  <path class="cls-1" d="M215.95,381.84c1.93-1.21,7.89-1.78,4.22-3.04-2.92.06-4.31.24-5.22.47h-.17c-.05.02-.06.04-.1.07-1.14.33-1.53.75-3.96,1.06.54-.02,1.01-.03,1.45-.05l-1.05.39c2.71-.02,3.41-.19,3.5-.43,3.4.04-5.83.89,1.24,1.38-2.31.23-4.39.31-6.35.38,2.12.12,4.16.28,6.09.49-.11-.03-.18-.05-.27-.07h-.06s.01-.01.01-.01c-.51-.14-.68-.23-.1-.15.04-.02.18-.02.25-.03.08-.17.29-.31.53-.46,3.41.21.54.31-.53.46-.04.06-.13.12-.14.18,0,0,.03,0,.04.01l11.78-.77c-2.5-.14-5.62-.08-11.15.11Z"/>
  <path class="cls-1" d="M167.05,379.66c.12.09.24.17.35.26.18-.04.02-.13-.35-.26Z"/>
  <polygon class="cls-1" points="241.45 383.63 247.1 381.79 242.73 382.36 241.45 383.63"/>
  <polygon class="cls-1" points="255.02 383.18 258.38 382.48 255.48 382.07 255.02 383.18"/>
  <path class="cls-1" d="M476.56,277.6c.94-4.21,2.52-8.91,1.28-8.39l-1.19,1.3c.24,2.93.11,5.18-.09,7.08Z"/>
  <path class="cls-1" d="M386.1,380.08c3.63.42,6.52.57,9.06.59-4.38-.63-7.92-1.61-9.06-.59Z"/>
  <path class="cls-1" d="M336.68,7.38c-1.77.21-2.52.45-2.47.72,1.82-.2,2.85-.42,2.47-.72Z"/>
  <path class="cls-1" d="M405.63,380.51c-.64-.11-1.27-.16-1.92-.25-2.65.24-5.31.44-8.55.41,3.23.47,6.93.73,10.47-.16Z"/>
  <path class="cls-1" d="M6.65,342.16c-.08-1.19-.09-3.12-.11-4.95-.08.89-.07,2.38.11,4.95Z"/>
  <path class="cls-1" d="M306.8,382.05c-2.7.11-.43.14,0,0h0Z"/>
  <path class="cls-1" d="M302.73,381.55c1.02.14,2.19.25,3.46.32-.56-.09-1.61-.19-3.46-.32Z"/>
  <path class="cls-1" d="M303.28,382.11c-.93-.04-1.67-.06-2.37-.09-.34.2-.04.33,2.37.09Z"/>
  <path class="cls-1" d="M306.8,382.05c.79-.02,1.91-.06,3.77-.11-1.55.04-2.99,0-4.38-.07.53.08.76.14.61.18Z"/>
  <path class="cls-1" d="M482.11,378.86c.97.28.47-.8.5-1.39l-.2-2.04c-.14-1.36-.29-2.72-.43-4.09-.32-2.72-.65-5.48-.98-8.31-.17-1.28-.34-2.57-.51-3.9-.05-.33-.11-.69-.16-1.03.06,0,.12,0,.18-.05-1.79-11.03-1.54-10.36-3.32-17.81,0-2.24.02-4.58.03-7l.34-3.34c-.1.58-.22,1-.33,1.34,0-1.96-.03-3.96-.1-5.97.1.03.2-.14.29-.58.09,1.14.03,2.62-.1,3.81.67-3.82.67-7.75.4-11.68l.4-.54-.46-.32c-.07-.83-.14-1.65-.23-2.48l.64-12.02c-.71-3.16-1.52-6.18-2.33-9.34.06-.95.15-1.89.3-2.81-.51-2.93-.41-5.06-.14-7.13,0,.27.04.52.08.73,0-.3,0-.75-.01-1.21,0-.06.02-.12.03-.18.26,2.19.45,4.46.42,6.77.06-4.37.9-3.44,1.22-2.33l-1.13-8.13c0-.08.02-.15.03-.22-.01.06-.02.12-.04.18l-.86-6.18.99-1.09c-.02-.27-.03-.49-.04-.78.07-.49.09-.87.1-1.2.09-1.27.12-2.87.33-4.58-1.44,1.61-1.95-1.66-2.27-5.97-.16-2.18-.23-4.42.82-6.13-.35-.67-.57-2.44-.76-4.63.56.86.98,3.11.95,8.05,1.05-4.55-.13-7.28-1.13-10.18-.13-1.68-.28-3.47-.46-5.15.04.09.06.19.12.26-.92-4.21-.49-14.56.38-12.14l.06,1.8c.05-5.62-.09-13.96-.48-21.44.26.4.55,1.22.89,2.54-1.15-7.28-1.15-9.31-1.39-12.06v-6.3c.61.43,1.18.9,1.38,1.2l-1.38-3.62v-6.47l2.33,3.27c-1.54-4.12-1.37-6.47-1.09-9.61l-1.24,1.17v-1.55c.14-1.08.27-2.29.38-3.68.38.82.69,1.98.9,3.65.27-2.86.54-6.4-.19-12.42-.05.31-.16.64-.31.97.49-13.52.49-32.76,2.2-46.85-1.84,2.19-1.13-.99-.54-4.43.22-.08.49-.3.87-.77.53-5.88-.52-4.58-.87-5.8.67-1.31,1.13-3.34,1.65-.28-.41-9.81,1.32-15.1.15-21.64.04-.65.08-1.31.12-1.96.45.37.69,2.24,1.06,1.42-.14-.86-.56-3.41-.07-4.51.49-1.07.59,1.58.87,3.28.11-5.45-.41-8.47-1.23-10.24.02-.22.02-.44.04-.65-1.76.64-1.43-11.07-2.64-12.29-.15-.66-.33-1.34-.57-2.06.13-.32.27-.68.4-1.02.37.5.67.88.85.81-.14-.34-.24-1.06-.32-1.98.42-.66.73-.16.74,3.88.24-3.81,1.92-23.24.18-23.69.27-.63.34-2.13.33-3.54.07-.29.11-.56.2-.86.19-1.36.99-3.35,1.6-5.06.31-.86.57-1.64.69-2.25.14-.81.16-1.68-.1-1.82-.67,1.86-1.42,2.32-2.31,2.9.24-4.56.38-7.16.61-11.47-.75-.33-2.47-.69-4.71-1.18v-2.38h-2.54c.41-.14.85-.28,1.32-.42,2.82-.87,6.46-1.67,4.48-2.46-.76.48-4.6.98-6.02,1.13-3.55-.56,2.6-1.49-6.23-1.57-.48.46-1.76.64-3.21.69-1.19.07-2.4.02-3.34-.03-1.85-.1-2.33-.18,2.59.81-6.21.4-6.57-.54-13.85-.62,1.04.58-.24,1.46-2.52,2.28-1.57-.07-3.88-.27-7.7-.73l.57.92h-13.2c-2.74-.35-5.57-.57-8.18-.36-1.72-.11-3.45-.22-5.23-.32-3.89-1.24-7.98-2.96-10.8-3.19-1.06-.25,1.68-.39,3.16-.57-12.75-1.76-1.66,1.73-11.18,2.09-.37-.2-.48-.43-.48-.66,1.98-.08,3.65-.27,1.27-1.18-.09.21-.51.39-1.15.55.16-.63.03-1.18-3.76-1.31-1.48-.36-5.62.25-10.48.82.38-.16-.4-.27-3.76-.27-.58.37-5.19.64-3.8.97-3.35.18-6.61.14-9.26-.42,1.92.73,3.83,1.47-.59,1.99-1.58.05-3.43-.08-5.39-.28l.21-1.51-3.38.62c1.54.25,1.94.5,2.58.83-6.35-.67-13.88-1.93-18.44-.25-.86-.2-1.18-.39-1.22-.57-3.94.43-11.61.72-16.44,1.37-2.14-.12-4.15-.26-5.98-.43-8.23-2.06-29.71,2.75-29.59-1l-15.92.14.42-.43c-7.75-.25-11.69.26-14.71.97-.03-.09-.24-.18-.73-.26-.15.34-.98.66-2.16.91-1.94-.29-.39-.66-.2-.87-14.87-.93-16.34-.76-28.82,1.28l-1.29-1.38c-3.38.78-21.49-2.27-36.08-.74.14-.15.45-.42,1.61-.61-16.42,1.53-39.26-4.02-45.3.95l-10.83,1.18c9.15.3,5.45,1.13,3.39,1.91h-9.34c-.7-.33-.28-.62,2.15-.7l1.06.26c2.5-2.6-17.4-1.02-17.02-2.79-27.57-.02-54.43-1.61-80.25-1.85l2.96,2.04-4.58-.08-3.09-.05h-.77c-.38-.24-.82-.56-1.23-.83l-2.49-1.7c-1.37-1.05-2.74-2.2-3.55-2.99-.32-.44-.57-.83-.71-1.14-.02-.06-.05-.13-.08-.22l-.02-.1s.19.1.3.16c.5.29,1.22.77,2.21,1.48,1.03.76,2.28,1.69,3.8,2.81.39.3.79.6,1.22.93.33.16.52.04.8.08.52,0,1.09,0,1.7.01-.66-.15-1.42-.24-2.25-.3-.14.11-.56-.28-.94-.58-.38-.3-.76-.61-1.15-.92-.77-.61-1.57-1.23-2.37-1.86-.79-.6-1.59-1.21-2.4-1.83-.69-.51-1.94-1.47-1.66-1.14-.1.1-.17.23-.24.36-.13.27-.23.53-.28.72-.12-.2.11,1.45.18,1.52-1.06,8.16-1.5,6.26-1.67,2.12-.03-1.03-.06-2.17-.09-3.25,0-.55-.02-1.09-.03-1.59,0-.25,0-.5-.01-.73,0-.23-.01-.52,0-.46.1-.21.09-.4-.17-.41-.13-.29-.14.83-.19,1.46l-.13,2.15-.26,4.26.37-1.62c.11,3.78.38,5.84.49,8.38.04.82.05,1.72.04,2.69,0,0,0,0,0,0,0,0,0,0,0,0,0,.53,0,1.05-.02,1.67-.04.86-.09,1.81-.15,2.9-.07.89-.15,1.89-.24,3.02-.06.35-.11.65-.17.93-.92,2.15-1.87,3.98-2.84,3.64,2.32,7.18-3.53,18.88-.24,30.66-.56,2.59-.84-2.22-1.47-.83,1.12,2.99,1.34,6.59.79,13.26l-.28-.76c.15,18.75-1.03,26.78-1.91,47.85l1.32-1.55c-.21,4.53-.62,5.48-.96,7.6,1.96,5.21.19-12.72,2.35-7.97-1.26,2.8-1.4,9.94-1.49,17.18-.24,1.21-.53,2.31-.94,3.18.5-1.47.73-.53.87,1.42-.11,6.57-.39,12.45-1.71,14.2-.03,5.49.93,1.09,1.32,2.37.07.85.1,1.73.14,2.59l-.81,1.81.98,1.64c0,.36,0,.73,0,1.08-.29,3.91-1.21,5.92-1.86,6.08.09-1.11-.18-3.15-.24-4.34-.93,5.5.14,15.19.04,18.17l.46-6.12c.47,12.1.25,25.9.5,39.07l-.38,1.53c.06.85.25,1.49.48,2.05.17,6.27.46,12.37,1.03,18l.4-.93c-.44,13.08-.16,26.32.12,39.62-.26,1.15-.55,1.69-.91-.32.52,4.9.82,7.4,1.08,8.91.3,17.42.29,34.88-1.74,52.13.91-4.92,1.03-1.65,1.08,2.11.22-2.44,1.2.05,1.86-.43l-1.78,15.21c1.86,2.77.13,16.29,1.88,17.88l-.31-4.81c.82,2.55,1.72,1.63,2.67-.32,0,.08.02.17.03.25.11.97.2,1.95.27,2.97.15,2.03.2,4.18.11,6.69,1.01,1.87,1.2,4.58,1.43,6.94.06.57.12,1.11.18,1.62.04.23.08.46.12.67,0,.07.02.11.03.13-.31.05-.52.14-.65.24-.08-.52-.16-1.05-.23-1.56-.23-1.46-.5-2.81-.8-4.01-.11,1.59.04,3.68.28,5.77.06.51.12,1.09.19,1.53l.38-.17c.27-.15.53-.29.77-.42.24-.14.47-.27.63-.35.08-.04.15-.06.2-.05.02,0,.04,0,.06.02.06-.03.35-.24.47-.32.62-.42.84-.48.49-.03-.17.23-.49.59-.98,1.11-.25.27-.54.57-.87.92-.25.28-.25.32-.4.5l.22-.28.82-.82,1.74-1.67c1.14-1.07,2.23-2.07,3.31-3.02,1.05-.9,2.11-1.8,3.18-2.72.13-.1.27-.23.39-.31l.22-.02.45-.04.91-.07c.6-.03,1.22-.05,1.84-.08.55,0,1.1-.01,1.67-.02.85.03,1.73.06,2.64.08,3.64.17,7.72.42,12.09-.76l-.57,1.32c1.39-.21,4.26-.85,6.81-.83l-4.61,1.73c7.09-1.49,13.69,1.2,20.5.37-14.26.12-3.21-1.57-9.24-2.5,16.15-1.7,11.19,2.58,25.54,2.72-3.18.25-6.47.49-9.21.22l-1.11-.44-3,1.62c8.12-.32,18.66-1.47,24.39-.96-.38-.21-.87-.35-1.4-.47,8.68-.24,4.36-.79,2.63-1.37.44-.02.72-.08.67-.22l-1.27-.18c.05-.14.41-.27,1.28-.4,4.45,1.58,6.4-.69,12.12-1.23l.05,1.34c14.87.78,3.93-2.81,17.31-1.84l-5.65,1.89,6.97-.52-1.43,1.53c7.58-1.17,9.95-.89,17.39-.5-1.73-.93.96-2.43,7.54-2.51,4.47.77-2.4,1.28,6.66,1.05-.22.07-.37.15-.42.23-1.96.79-4.19,1.57-7.89.47-.41.44-2.07.85-2.5,1.28,1.78.33,3.89.43,6.02.43-.06.53.95,1.02-2.71,1.77,2.67-.55,7.62-1.15,6.18-1.85,2.4-.09,4.59-.23,6.05-.24-1.3-.04-2.86-.11-3.66-.29l5.16-.73c2.79.41,5.42.99,6.41,1.33-.88-.65-1.78-1.2-3.23-1.79l5.18-.74c2.13.49.45.9-1.23,1.31,2.74-.16,4.63-.78,8.66-.92-1.04,1.09-.78,2.21-6.48,2.76l12.88-1.28c.86.47,6.62,1.26,4.95,1.67,7.15.6,17.52-2.2,27-1.41.49-.21,1.48-.42,3.49-.59,6.26.14,12.04.8,18.57.66,1.11.81,2.61,1.6,4.24,2.22.18-.48.17-.92,6.2-1.63-.91-.25-3.53-.52-5.8-.83,1.34-.12,2.71-.26,4.13-.47l6,1.92c8.26-.49-8.12-2.41,5.64-3.22,5.52-.38,5.95.2,5.92.87-.95.04-1.91.08-2.84.05-.4.54,1.01.24,2.83.03-.05.49-.25,1.01,1.16,1.22.62-.13,1.3-.27,2.02-.43,1.29.24,4.12-.12,6.99-.49-.12-.29-.46-.47-.95-.58,1.37-.19,2.79-.36,4.29-.46-.02.01-.06.02-.08.03l3.45.64c-.51,0-1.02.01-1.55.04l3.46.53c-5.95.95-13.17,2.69-20.47,2.25.11.05.19.09.29.13-1.78-.3-2.65-.45-2.26.68,1.19.03,2.48-.05,3.78-.12,1.22.26,1.27-.42,5.3,1.01-2.32-1.19,2.41-1.22,6.84-1.26.44.15,1.1.33,2.1.56.06-.22.21-.41.42-.59,2.97-.06,4.99-.25,3.21-1.01.02,0,.04,0,.06,0,5.1,1.77,9.06.68,15.89,2.45-.23-.56-2.56-1.04,3.78-.84.28-.17.96-.38,1.38-.51.19.02.26.02.43.04-.13-.02-.22-.04-.35-.06.27-.09.3-.1-.13-.02-1.51-.23-2.74-.51-3.23-.82,3.13-1.32,13.19-1.39,16.59-2.1,3.76.22-1.56.66.49,1.24l5.02-1.05.49.7.87.02c2.44.82,6.8,1.4-.15,2.06l7.97-.04c4.7.64,11.15.84,15.12.27,3.76.22,9.47-1.5,6.21-.48l12.48-.94.12.31c4.29,0,8.68-.29,13.15-.59,3.11.28,6.69.36,11.03,1.07-.71-.26-3.16-.79-5.48-1.41,2.86-.16,5.76-.24,8.71-.24l3.96.92.41-.44c-.58-.32-1.4-.43-2.67-.49,3.39.06,6.84.29,10.36.8,4.15-.38,8.43-.81,15.38-.59l1.37,1.05c5.32-.47,16.03.79,18.3-.37,2.9,1.4,9.39,1.4,16.33,1.1,4.39-.23,8.93-.47,13.12-.69,5.61-.29,10.66-.51,14.8-.53l-.89-1.38ZM476.31,67.85l.24,3.56c-.28-.14-.56-.26-.84-.37.27-1.18.46-2.22.61-3.19ZM473.75,13.7l.97.33c-.34.05-.65.06-.97.09v-.42ZM473.75,59.22c.16-.53.31-1.02.41-1.42l.58,10.91c-.23.9-.58.63-.99-.21v-9.28ZM19.61,11.09h-.03s0-.04,0-.04l.03.04ZM29.37,377.54c-.77.09-1.59.15-2.63.19-.71.02-1.46.04-2.23.05-.39,0-.78.01-1.17.02h-.6c-.2,0-.36-.06-.78.32-1.41,1.06-2.84,2.15-4.3,3.26l-2.21,1.68-.56.42c-.21.16-.39.3-.35.26l-.15.08-.27.15c-.12-.07-.22-.09-.2-.02-.38-.01-.66.01-.89.05.02.01.03,0,.06-.03l.13-.13c.36-.37.82-.95,1.45-1.93l-.67.6c-.07.13-.09-.04-.1-.22l-.05-.48-.11-.96-.44-3.89-.89-8c.33,2.28.76,4.38,1.22,6.35.23.95.46,1.92.7,2.91.11.47.23.95.35,1.44l.17.72.08.36s.02.15.05.15l.11-.12c.58-.67,1.17-1.36,1.79-2.08.3-.35.61-.72.93-1.09l.47-.54c.02-.08.28-.2.51-.32l.69-.34c1.77-.78,3.93-2.18,5.19-1.75.73.03,1.49.06,2.26.1.66.06,1.33.12,2.03.18-.5.22-1.31.48-2.85.73-.81.12-1.67.24-2.52.36l-.65.08c-.22.04-.63.4-.93.59-.67.47-1.31.93-1.92,1.37.8-.43,1.63-.93,2.48-1.47.66-.19,1.1-.02,1.67-.07,1.01,0,2.3-.06,3.06-.12,1.58-.11,3.17-.22,4.85.1-.24.55-1.26.86-2.77,1.04ZM81.99,380.15c-2.96-.22-6.17-.85-3.09-1.32,3.47.23,7.95.66,10.43,1.26-1.96-.27-4.54-.15-7.34.05ZM280.5,380.16s-.06-.02-.1-.04c.04.01.07.02.1.04,0,0,0,0,0,0ZM286.48,377.98l-.02-.02s.06,0,.09.01c-.02,0-.05,0-.07,0ZM336.44,380.61c.08-.03.14-.04.21-.07,4.41.47,2.85.28-.21.07ZM364.84,376.05c-15.18.31-13.56,4.2-28.01,2.78-2.57-.6-3.02-1.22-2.79-1.81l3.18-.36c2.12.05,2.02.51.48.63l12.25-.34-.1.11c1.9-.6,6.21-1.54,8.32-1.94,3.39.52-1.7.41-.83.87l7.39-.95c1.11.35.98.71.12,1.01ZM373.83,377.13c-.24.02-.43.03-.65.04,1.74-1.15,3.21-.95,5.39-.6-1.51.21-3.09.4-4.74.57ZM475.45,267.42c-.12.32-.18.7-.26,1.06-.08.12-.15.24-.23.38-.06-.47-.14-.89-.21-1.33.22-.08.45-.13.7-.11ZM473.87,236.72c.01.35.01.63.02.92-.03-.17-.06-.33-.08-.5.02-.14.04-.28.06-.42ZM477.05,323.06c.16.22.26.66.32,1.2-.09.15-.18.3-.27.38-.02-.53-.03-1.05-.05-1.57Z"/>
  <path class="cls-1" d="M279.39,382.16c.11.27.94.63.03.75l5.26-.37c-2.83.1-3.85-.18-5.28-.38Z"/>
  <path class="cls-1" d="M315.68,381.02c-1.95-.27-1.21,1.45-2.31,1.01-2.16,1.46,12.96-1.89,2.31-1.01Z"/>
  <polygon class="cls-1" points="5.18 362.16 4.59 367.61 5.54 364.09 5.18 362.16"/>
  <path class="cls-1" d="M5.46,373.91l1.63,3.28c-.08-1.23-.23-3.63.17-4.56l-1.8,1.28Z"/>
  <path class="cls-1" d="M349.35,377.59l.51-.54c-.96.3-1.36.52-.51.54Z"/>
  <path class="cls-1" d="M477.56,329.91c.23-1.25.41-3.04.57-5.56l-.57,5.56Z"/>
  <path class="cls-1" d="M4.38,163.01c.06-.3.08-.66.15-.94-.16-.09-.17.33-.15.94Z"/>
  <path class="cls-1" d="M17.04,380.09c-.26.2-.5.38-.7.54-.15.13-.13.14-.19.21-.11.14-.15.19-.17.22.31-.25,2.23-1.64,4.1-2.99-.35.18-.74.39-1.12.6-.77.58-1.41,1.05-1.92,1.44Z"/>
  <path class="cls-1" d="M475.09,177.28c-.02-.12-.04-.19-.06-.31-.01.13-.03.29-.04.4l.1-.09Z"/>
  <path class="cls-1" d="M472.43,7.37c2.58.28,3.85.57,4.58.85.45-.31-.48-.62-4.58-.85Z"/>
</svg>